<?xml version="1.0" encoding="UTF-8" standalone="no"?><svg xmlns:dc="http://purl.org/dc/elements/1.1/" xmlns:cc="http://creativecommons.org/ns#" xmlns:rdf="http://www.w3.org/1999/02/22-rdf-syntax-ns#" xmlns:svg="http://www.w3.org/2000/svg" xmlns="http://www.w3.org/2000/svg" width="529.25897" height="788.89874" id="svg1378" version="1.0"> <defs id="defs1380" /> <metadata id="metadata1383"> <rdf:RDF> <cc:Work rdf:about=""> <dc:format>image/svg+xml</dc:format> <dc:type rdf:resource="http://purl.org/dc/dcmitype/StillImage" /> <dc:title></dc:title> </cc:Work> </rdf:RDF> </metadata> <g id="layer1" transform="translate(-36.387486,-217.15585)"> <g id="g2171"> <path id="rect1386" d="M 179.2441,231.84782 C 165.67989,208.35393 430.63408,230.03925 430.63408,230.03925 C 468.61386,224.61358 446.19964,350.54155 427.01695,383.76693 C 427.01695,407.27823 206.97887,405.96968 181.05266,391.00118 C 181.05266,391.00118 195.06254,259.24617 179.2441,231.84782 z " style="fill:#b3b3b3;fill-opacity:0.94117647000000004;fill-rule:evenodd;stroke:#000000;stroke-width:7.51961231000000030;stroke-linecap:round;stroke-linejoin:miter;stroke-miterlimit:4;stroke-dashoffset:0;stroke-opacity:1" /> <path id="rect2114" d="M 151.92922,395.21 C 162.32664,435.4518 525.10192,401.43561 484.27996,408.78045 C 454.93017,450.12205 467.55652,688.62824 467.55652,688.62824 C 445.85379,668.73406 303.45122,663.38965 136.63597,682.35569 C 137.68341,652.93583 151.92922,395.21 151.92922,395.21 z " style="fill:#b3b3b3;fill-opacity:0.94117647000000004;fill-rule:evenodd;stroke:#000000;stroke-width:6.39158915999999970;stroke-linecap:round;stroke-linejoin:miter;stroke-miterlimit:4;stroke-dashoffset:0;stroke-opacity:1" /> <path id="rect2842" d="M 67.337124,435.99401 C 103.85875,424.79223 133.9578,429.48358 133.9578,429.48358 L 122.95493,644.42089 L 40.147292,634.74908 C 40.147292,634.74908 72.762806,473.97379 67.337124,435.99401 z " style="fill:#b3b3b3;fill-opacity:0.94117647000000004;fill-rule:evenodd;stroke:#000000;stroke-width:7.51961231000000030;stroke-linecap:round;stroke-linejoin:miter;stroke-miterlimit:4;stroke-dashoffset:0;stroke-opacity:1" /> <path id="rect2844" d="M 485.45622,437.22937 C 539.69506,425.9709 552.09549,438.22431 552.09549,438.22431 C 552.09549,438.22431 541.52447,563.0643 562.05621,653.44026 L 481.26341,657.46285 C 493.92334,548.94919 471.10437,488.80652 485.45622,437.22937 z " style="fill:#b3b3b3;fill-opacity:0.94117647000000004;fill-rule:evenodd;stroke:#000000;stroke-width:7.18049191999999970;stroke-linecap:round;stroke-linejoin:miter;stroke-miterlimit:4;stroke-dashoffset:0;stroke-opacity:1" /> <path id="rect2846" d="M 193.7126,700.2651 C 233.64455,677.21038 287.75777,694.83941 287.75777,694.83941 L 287.75777,1002.2948 C 287.75777,1002.2948 256.6157,993.78043 181.05267,1002.2948 C 184.6698,975.16641 193.7126,700.2651 193.7126,700.2651 z " style="fill:#b3b3b3;fill-opacity:0.94117647000000004;fill-rule:evenodd;stroke:#000000;stroke-width:7.51961231000000030;stroke-linecap:round;stroke-linejoin:miter;stroke-miterlimit:4;stroke-dashoffset:0;stroke-opacity:1" /> <path id="rect2848" d="M 421.91199,695.16981 C 391.84279,678.58506 322.4793,689.08477 322.4793,689.08477 C 333.35872,739.55126 320.44093,996.53344 320.44093,996.53344 C 367.46352,998.342 354.14423,994.15214 419.98156,986.34176 C 418.37687,955.58492 414.51005,720.44114 421.91199,695.16981 z " style="fill:#b3b3b3;fill-opacity:0.94117647000000004;fill-rule:evenodd;stroke:#000000;stroke-width:7.51961231000000030;stroke-linecap:round;stroke-linejoin:miter;stroke-miterlimit:4;stroke-dashoffset:0;stroke-opacity:1" /> <path transform="matrix(0.796074,0,0,0.788107,459.0556,16.03142)" d="m -210.11173,347.2757 c 0,25.66302 -18.54269,46.46701 -41.41625,46.46701 -22.87357,0 -41.41626,-20.80399 -41.41626,-46.46701 0,-25.66303 18.54269,-46.46702 41.41626,-46.46702 22.87356,0 41.41625,20.80399 41.41625,46.46702 z" id="path2858" style="opacity:1;fill:#ff0000;fill-opacity:0.94117647000000004;fill-rule:evenodd;stroke:#000000;stroke-width:8.39999961999999910;stroke-linecap:round;stroke-linejoin:miter;stroke-miterlimit:4;stroke-dasharray:none;stroke-dashoffset:0;stroke-opacity:1" /> <path transform="matrix(0.796074,0,0,0.788107,580.2291,17.83984)" d="m -210.11173,347.2757 c 0,25.66302 -18.54269,46.46701 -41.41625,46.46701 -22.87357,0 -41.41626,-20.80399 -41.41626,-46.46701 0,-25.66303 18.54269,-46.46702 41.41626,-46.46702 22.87356,0 41.41625,20.80399 41.41625,46.46702 z" id="path2860" style="opacity:1;fill:#ff0000;fill-opacity:0.94117647000000004;fill-rule:evenodd;stroke:#000000;stroke-width:8.39999961999999910;stroke-linecap:round;stroke-linejoin:miter;stroke-miterlimit:4;stroke-dasharray:none;stroke-dashoffset:0;stroke-opacity:1" /> <path id="rect2862" d="M 244.35229,385.5755 L 264.55676,384.61636 L 269.67214,425.36384 L 244.35229,425.36384 L 244.35229,385.5755 z " style="fill:#eaeafb;fill-opacity:0.78431373;fill-rule:evenodd;stroke:#000000;stroke-width:7.51961231;stroke-linecap:round;stroke-linejoin:miter;stroke-miterlimit:4;stroke-dashoffset:0;stroke-opacity:1" /> <path id="rect2864" d="M 376.38666,386.84493 L 396.27141,384.67121 L 396.27141,430.78952 L 373.50925,427.91211 L 376.38666,386.84493 z " style="fill:#eaeafb;fill-opacity:0.78431373;fill-rule:evenodd;stroke:#000000;stroke-width:7.51961231;stroke-linecap:round;stroke-linejoin:miter;stroke-miterlimit:4;stroke-dashoffset:0;stroke-opacity:1" /> <path id="path2868" d="M 358.83078,654.78151 L 378.71553,658.93776 L 375.09841,694.2047 L 355.95337,703.08294 L 358.83078,654.78151 z " style="fill:#eaeafb;fill-opacity:0.78431373;fill-rule:evenodd;stroke:#000000;stroke-width:7.51961231;stroke-linecap:round;stroke-linejoin:miter;stroke-miterlimit:4;stroke-dashoffset:0;stroke-opacity:1" /> <path id="path2870" d="M 230.42294,658.39863 L 250.3077,662.55489 L 251.21198,705.96035 L 227.54554,699.46582 L 230.42294,658.39863 z " style="fill:#eaeafb;fill-opacity:0.78431373;fill-rule:evenodd;stroke:#000000;stroke-width:7.51961231;stroke-linecap:round;stroke-linejoin:miter;stroke-miterlimit:4;stroke-dashoffset:0;stroke-opacity:1" /> <path id="path2872" d="M 497.01953,449.12315 L 505.39886,470.86993 L 455.30888,471.39844 L 451.81098,446.7915 L 497.01953,449.12315 z " style="fill:#eaeafb;fill-opacity:0.78431373;fill-rule:evenodd;stroke:#000000;stroke-width:7.88633966;stroke-linecap:round;stroke-linejoin:miter;stroke-miterlimit:4;stroke-dashoffset:0;stroke-opacity:1" /> <path id="path2874" d="M 160.80996,444.7626 L 161.15728,465.07412 L 122.35548,473.87933 L 120.12424,451.04477 L 160.80996,444.7626 z " style="fill:#eaeafb;fill-opacity:0.78431373;fill-rule:evenodd;stroke:#000000;stroke-width:7.51961231;stroke-linecap:round;stroke-linejoin:miter;stroke-miterlimit:4;stroke-dashoffset:0;stroke-opacity:1" /> </g> </g> </svg>